<?xml version="1.0" encoding="utf-8"?>
<!-- Generator: Adobe Illustrator 19.2.1, SVG Export Plug-In . SVG Version: 6.00 Build 0)  -->
<svg version="1.1" id="Layer_2" xmlns="http://www.w3.org/2000/svg" xmlns:xlink="http://www.w3.org/1999/xlink" x="0px" y="0px"
	 viewBox="0 0 80.3 80.3" style="enable-background:new 0 0 80.3 80.3;" xml:space="preserve">
<style type="text/css">
	.st0{fill:#EB6A5C;}
	.st1{fill:#552F2F;}
	.st2{fill:#55AB99;}
	.st3{fill:#2F4555;}
	.st4{fill:#FFFFFF;}
	.st5{fill:#ED6B5A;}
	.st6{fill:#0C2C48;}
	.st7{fill:#F1CC4B;}
	.st8{clip-path:url(#SVGID_2_);}
	.st9{clip-path:url(#SVGID_2_);fill:#F6A09C;}
	.st10{fill:#50646F;}
	.st11{fill:#FCA886;}
	.st12{fill:#EDAB7E;}
	.st13{fill:#332319;}
	.st14{fill:#E07E45;}
	.st15{fill:#FF8F8F;}
	.st16{fill:#A6D1D9;}
	.st17{fill:#628185;}
	.st18{fill:#BABABA;}
	.st19{fill:#698391;}
	.st20{opacity:0.41;fill:#FFFFFF;}
	.st21{fill:#F6A09C;}
	.st22{fill:#FFF3C9;}
	.st23{fill:#2384AB;}
	.st24{fill:#BABFC5;}
	.st25{clip-path:url(#SVGID_4_);}
	.st26{fill:#6EB9E0;}
	.st27{fill:#F8A06D;}
	.st28{fill:#A3B9C4;}
	.st29{fill:#3B4A52;}
	.st30{clip-path:url(#SVGID_6_);}
	.st31{clip-path:url(#SVGID_8_);fill:#F6A09C;}
	.st32{opacity:0.21;fill:#FFFFFF;}
	.st33{clip-path:url(#SVGID_10_);fill:#F6A09C;}
	.st34{clip-path:url(#SVGID_12_);}
	.st35{fill:#FFD3B5;}
	.st36{fill:#BFD9E6;}
	.st37{fill:#798287;}
	.st38{fill:#A4A8AD;}
	.st39{fill:#FFD6BA;}
	.st40{fill:none;stroke:#0C2C48;stroke-width:1.4;stroke-miterlimit:10;}
</style>
<g>
	<g>
		<circle class="st26" cx="40.2" cy="40.2" r="40.2"/>
	</g>
	<g>
		<g>
			<g>
				<g>
					<g>
						<g>
							<path class="st10" d="M67.7,56.2c0,0.7-0.5,1.2-1.2,1.2H13.8c-0.7,0-1.2-0.5-1.2-1.2V17.4c0-0.7,0.5-1.2,1.2-1.2h52.8
								c0.7,0,1.2,0.5,1.2,1.2V56.2z"/>
						</g>
						<g>
							<rect x="29.8" y="56.3" class="st29" width="20.7" height="7"/>
						</g>
					</g>
				</g>
				<g>
					<rect x="15.5" y="18.6" class="st28" width="49.3" height="30.5"/>
				</g>
				<g>
					<path class="st10" d="M12.6,48.1v8.1c0,0.7,0.5,1.2,1.2,1.2h52.8c0.7,0,1.2-0.5,1.2-1.2v-8.1H12.6z"/>
				</g>
				<g>
					<path class="st10" d="M55.7,68.1v-2.2c0-1.7-1.3-3-3-3h-25c-1.7,0-3,1.3-3,3v2.2H55.7z"/>
				</g>
			</g>
			<g>
				<circle class="st6" cx="40.2" cy="52.5" r="1.5"/>
			</g>
		</g>
	</g>
	<g>
		<g>
			<path class="st6" d="M48.1,30.5c1.2-0.4,2.3-0.7,3.5-1.1c-0.3-0.2-0.5-0.4-0.8-0.6c0,1.3,0,2.6,0.1,3.9c0,0.8,1.2,0.7,1.2-0.1
				c0-1.3,0-2.6-0.1-3.9c0-0.4-0.4-0.7-0.8-0.6c-1.2,0.4-2.3,0.7-3.5,1.1C47,29.6,47.4,30.8,48.1,30.5L48.1,30.5z"/>
		</g>
	</g>
	<g>
		<g>
			<g>
				<line class="st6" x1="36.4" y1="38.3" x2="33.4" y2="41.3"/>
			</g>
			<g>
				<g>
					<path class="st6" d="M36,37.9c-1,1-2,2-3,3c-0.5,0.5,0.3,1.2,0.7,0.7c1-1,2-2,3-3C37.2,38.2,36.5,37.5,36,37.9L36,37.9z"/>
				</g>
			</g>
		</g>
		<g>
			<g>
				<line class="st6" x1="33.3" y1="38.2" x2="36.4" y2="41.4"/>
			</g>
			<g>
				<g>
					<path class="st6" d="M32.9,38.6c1.1,1.1,2.1,2.1,3.2,3.2c0.5,0.5,1.2-0.3,0.7-0.7c-1.1-1.1-2.1-2.1-3.2-3.2
						C33.2,37.4,32.5,38.1,32.9,38.6L32.9,38.6z"/>
				</g>
			</g>
		</g>
	</g>
	<g>
		<g>
			<g>
				<line class="st6" x1="31.1" y1="30.3" x2="28.1" y2="33.3"/>
			</g>
			<g>
				<g>
					<path class="st6" d="M30.8,29.9c-1,1-2,2-3,3c-0.5,0.5,0.3,1.2,0.7,0.7c1-1,2-2,3-3C31.9,30.2,31.2,29.5,30.8,29.9L30.8,29.9z"
						/>
				</g>
			</g>
		</g>
		<g>
			<g>
				<line class="st6" x1="28" y1="30.2" x2="31.2" y2="33.4"/>
			</g>
			<g>
				<g>
					<path class="st6" d="M27.7,30.6c1.1,1.1,2.1,2.1,3.2,3.2c0.5,0.5,1.2-0.3,0.7-0.7c-1.1-1.1-2.1-2.1-3.2-3.2
						C27.9,29.4,27.2,30.1,27.7,30.6L27.7,30.6z"/>
				</g>
			</g>
		</g>
	</g>
	<g>
		<g>
			<g>
				<line class="st6" x1="43.1" y1="28.7" x2="40.1" y2="31.7"/>
			</g>
			<g>
				<g>
					<path class="st6" d="M42.8,28.4c-1,1-2,2-3,3c-0.5,0.5,0.3,1.2,0.7,0.7c1-1,2-2,3-3C43.9,28.6,43.2,27.9,42.8,28.4L42.8,28.4z"
						/>
				</g>
			</g>
		</g>
		<g>
			<g>
				<line class="st6" x1="40" y1="28.7" x2="43.2" y2="31.8"/>
			</g>
			<g>
				<g>
					<path class="st6" d="M39.7,29c1.1,1.1,2.1,2.1,3.2,3.2c0.5,0.5,1.2-0.3,0.7-0.7c-1.1-1.1-2.1-2.1-3.2-3.2
						C39.9,27.8,39.2,28.6,39.7,29L39.7,29z"/>
				</g>
			</g>
		</g>
	</g>
	<g>
		<path class="st5" d="M54.5,28.6c-1.9,0-3.4-1.5-3.4-3.4c0-1.9,1.5-3.4,3.4-3.4s3.4,1.5,3.4,3.4C57.9,27,56.4,28.6,54.5,28.6z
			 M54.5,22.7c-1.3,0-2.4,1.1-2.4,2.4c0,1.3,1.1,2.4,2.4,2.4c1.3,0,2.4-1.1,2.4-2.4C56.9,23.8,55.8,22.7,54.5,22.7z"/>
	</g>
	<g>
		<path class="st6" d="M24.6,47.1c-1.4,0-2.6-1.2-2.6-2.6c0-1.4,1.2-2.6,2.6-2.6c1.4,0,2.6,1.2,2.6,2.6C27.2,45.9,26,47.1,24.6,47.1
			z M24.6,42.8c-0.9,0-1.6,0.7-1.6,1.6s0.7,1.6,1.6,1.6s1.6-0.7,1.6-1.6S25.5,42.8,24.6,42.8z"/>
	</g>
	<g>
		<g>
			<path class="st6" d="M26.4,43.2c2.5-5.5,6.5-8.4,12.6-8.5c4.8,0,9.9-0.3,12.6-4.9c0.3-0.6-0.5-1.1-0.9-0.5
				C47.4,35,40.5,33,35,34.1c-4.6,0.9-7.6,4.5-9.5,8.6C25.3,43.2,26.1,43.7,26.4,43.2L26.4,43.2z"/>
		</g>
	</g>
</g>
</svg>
